<svg width="1012" height="470" viewBox="0 0 1012 470" fill="none" xmlns="http://www.w3.org/2000/svg">
<path d="M33.0001 234C23.059 234 15 242.059 15 252C15 261.941 23.0588 270 32.9999 270L33.0001 234ZM323 270.5L314.225 286.216L314.225 286.216L323 270.5ZM996.825 288.884C999.522 279.316 993.953 269.373 984.385 266.675L828.463 222.715C818.895 220.017 808.952 225.587 806.254 235.155C803.556 244.723 809.126 254.666 818.694 257.364L957.291 296.44L918.215 435.037C915.517 444.605 921.087 454.548 930.655 457.246C940.223 459.943 950.166 454.374 952.864 444.806L996.825 288.884ZM32.9999 270C49.4973 270 69.5668 266.989 90.326 263.918C111.642 260.764 134.83 257.339 159.503 255.804C208.715 252.742 262.465 257.314 314.225 286.216L331.775 254.784C271.729 221.256 210.229 216.578 157.267 219.874C130.854 221.517 106.225 225.173 85.0568 228.305C63.3325 231.52 46.2527 234 33.0001 234L32.9999 270ZM314.225 286.216C444.53 358.976 593.524 373.083 718.63 364.027C843.311 355.003 947.183 322.733 988.296 299.704L970.704 268.296C935.701 287.902 837.489 319.33 716.032 328.121C595 336.882 453.801 322.921 331.775 254.784L314.225 286.216Z" fill="#FFFF00"/>
<path d="M542.052 120.152C522.852 131.16 494.18 140.376 472.676 144.728C454.5 148.312 433.508 153.432 415.332 140.888C405.604 134.232 401.252 128.088 401.252 120.92C401.252 112.984 404.836 104.792 409.188 98.392C399.972 95.32 396.388 90.712 394.34 80.472C392.804 72.536 394.34 70.488 400.996 69.976C407.396 69.464 414.052 68.952 420.708 68.696C452.452 66.392 489.06 64.6 508.516 64.344C525.156 64.6 533.86 61.784 541.796 80.216C544.612 87.128 541.796 89.688 531.3 89.944C505.444 90.712 473.188 92.248 448.1 94.808H446.82C440.932 103.512 439.396 110.424 438.372 115.032C437.092 121.176 440.676 121.944 446.82 121.944C467.3 122.2 516.964 116.568 538.212 112.728C545.636 111.448 547.94 116.824 542.052 120.152ZM375.14 170.072C412.26 163.672 515.428 157.784 555.364 159.32C569.7 159.832 574.052 163.16 574.564 170.328C574.82 176.728 570.98 177.496 567.908 177.752C520.548 181.08 446.308 189.272 393.06 198.744C387.94 199.512 379.236 201.56 375.908 195.928C365.924 179.288 364.132 172.12 375.14 170.072ZM414.052 227.928C411.236 223.064 411.492 219.48 417.124 217.432C441.188 208.728 470.372 205.4 493.924 205.4C504.42 205.4 510.82 207.192 519.78 218.2C526.948 226.904 528.996 234.328 525.924 242.52C521.572 254.296 513.892 270.168 501.092 288.6C498.02 292.952 494.948 293.72 491.108 291.416C485.22 288.344 483.428 285.016 484.708 279.64C489.06 261.464 491.876 247.64 493.924 233.304C474.98 234.584 453.732 237.912 437.604 241.752C431.46 243.288 426.596 245.848 422.756 240.728C419.172 236.12 416.612 232.024 414.052 227.928ZM718.526 201.816C699.326 217.944 678.334 229.72 656.83 236.888C637.63 243.288 621.758 246.616 603.582 225.88C597.694 218.968 595.134 207.192 595.39 197.72C595.902 179.8 600.766 151.896 603.582 140.376C605.374 133.976 608.19 123.224 610.494 116.056C606.142 111.704 602.046 108.12 597.694 100.44C595.134 95.832 597.182 91.736 605.118 90.456C613.566 88.92 621.246 87.896 628.414 86.872C636.094 85.848 671.678 82.776 685.502 82.008C701.63 80.728 707.518 81.496 708.286 86.616C708.286 89.688 706.494 98.392 704.446 102.232C700.094 110.168 687.806 109.4 678.078 110.936C670.142 112.216 653.502 114.008 646.334 115.288C644.03 122.712 640.958 135.256 639.422 142.936C639.166 144.728 638.654 146.52 638.398 148.824C663.742 146.264 677.822 145.24 700.606 143.192C707.006 142.68 707.774 146.776 707.518 150.616C707.006 155.992 704.19 160.6 699.07 163.16C685.246 169.816 653.502 176.472 633.534 180.056C631.998 190.04 630.974 199.512 630.974 205.656C630.718 211.8 633.022 213.592 639.166 212.824C654.526 211.032 692.926 203.864 714.686 194.136C718.782 192.344 723.646 197.464 718.526 201.816ZM724.926 261.72C729.022 232.28 732.606 205.912 736.19 172.888C739.262 144.984 741.566 121.944 743.87 96.088C745.918 76.12 736.19 71.512 745.406 69.208C761.022 64.6 773.054 72.536 778.43 84.056C783.294 94.04 781.758 115.544 779.454 129.624C778.942 132.952 778.43 136.792 777.406 141.144C776.638 144.728 778.686 145.496 783.55 144.728C794.302 143.448 805.822 141.656 816.574 140.12C825.278 138.84 822.206 155.992 815.294 159.32C805.054 164.184 794.558 167.512 777.918 173.656C773.054 175.448 770.75 176.472 769.726 181.848L766.654 196.952C763.07 214.872 755.646 251.736 749.758 269.4C748.478 273.24 743.614 275.8 735.166 273.24C727.486 271.192 723.902 269.912 724.926 261.72Z" fill="#FFFF00"/>
<path d="M121.204 193.624C105.588 197.464 92.02 192.088 90.484 173.144C89.46 160.344 90.996 131.16 94.836 108.888C96.628 98.392 98.676 90.968 101.236 83.288C108.916 82.008 115.316 83.8 120.692 87.64C126.068 90.712 129.652 90.2 135.028 88.664C154.484 82.52 189.3 80.216 205.684 80.728C219.508 81.24 231.796 85.08 236.916 97.624C240.756 106.84 232.308 155.48 227.444 163.672C237.684 174.68 227.188 185.688 217.46 185.432C209.012 185.176 194.676 185.688 179.316 186.712C179.06 188.504 178.292 191.064 177.268 194.648C174.964 202.328 172.148 212.824 169.844 227.16C199.796 225.624 228.212 224.856 245.364 225.624C259.7 226.136 264.052 229.464 264.564 236.632C264.82 243.032 260.98 243.8 257.908 244.056C210.548 247.384 136.308 255.576 83.06 265.048C77.94 265.816 69.236 267.864 65.908 262.232C55.924 245.592 54.132 238.424 65.14 236.376C81.524 233.56 111.22 230.744 142.452 228.696C142.452 215.64 144.5 202.072 148.34 189.528C137.332 190.808 127.604 192.088 121.204 193.624ZM120.436 167C140.148 162.648 169.844 161.112 192.116 158.552C195.444 158.04 197.492 157.272 198.26 155.736C203.636 144.472 206.452 108.888 202.612 108.888C196.468 108.632 171.892 109.912 151.668 112.984C142.708 114.264 131.7 116.824 122.996 119.896C122.74 135 121.716 154.2 120.436 167Z" fill="#FFFF00"/>
</svg>
