<svg width="512" height="512" viewBox="0 0 512 512" fill="none" xmlns="http://www.w3.org/2000/svg">
<rect width="512" height="512" rx="20" fill="black"/>
<path d="M204.104 270.524C182.388 275.864 163.52 268.388 161.384 242.044C159.96 224.244 162.096 183.66 167.436 152.688C169.928 138.092 172.776 127.768 176.336 117.088C187.016 115.308 195.916 117.8 203.392 123.14C210.868 127.412 215.852 126.7 223.328 124.564C250.384 116.02 298.8 112.816 321.584 113.528C340.808 114.24 357.896 119.58 365.016 137.024C370.356 149.84 358.608 217.48 351.844 228.872C366.084 244.18 351.488 259.488 337.96 259.132C326.212 258.776 306.276 259.488 284.916 260.912C284.56 263.404 283.492 266.964 282.068 271.948C278.864 282.628 274.948 297.224 271.744 317.16C313.396 315.024 352.912 313.956 376.764 315.024C396.7 315.736 402.752 320.364 403.464 330.332C403.82 339.232 398.48 340.3 394.208 340.656C328.348 345.284 225.108 356.676 151.06 369.848C143.94 370.916 131.836 373.764 127.208 365.932C113.324 342.792 110.832 332.824 126.14 329.976C148.924 326.06 190.22 322.144 233.652 319.296C233.652 301.14 236.5 282.272 241.84 264.828C226.532 266.608 213.004 268.388 204.104 270.524ZM203.036 233.5C230.448 227.448 271.744 225.312 302.716 221.752C307.344 221.04 310.192 219.972 311.26 217.836C318.736 202.172 322.652 152.688 317.312 152.688C308.768 152.332 274.592 154.112 246.468 158.384C234.008 160.164 218.7 163.724 206.596 167.996C206.24 189 204.816 215.7 203.036 233.5Z" fill="#FFFF00"/>
</svg>
